<?xml version="1.0" encoding="UTF-8" standalone="no"?>
<!-- Created with Inkscape (http://www.inkscape.org/) -->

<svg
   width="210mm"
   height="297mm"
   viewBox="0 0 210 297"
   version="1.1"
   id="svg5"
   xml:space="preserve"
   inkscape:version="1.2.2 (b0a8486541, 2022-12-01)"
   sodipodi:docname="fruta.svg"
   xmlns:inkscape="http://www.inkscape.org/namespaces/inkscape"
   xmlns:sodipodi="http://sodipodi.sourceforge.net/DTD/sodipodi-0.dtd"
   xmlns="http://www.w3.org/2000/svg"
   xmlns:svg="http://www.w3.org/2000/svg"><sodipodi:namedview
     id="namedview7"
     pagecolor="#ffffff"
     bordercolor="#000000"
     borderopacity="0.25"
     inkscape:showpageshadow="2"
     inkscape:pageopacity="0.0"
     inkscape:pagecheckerboard="0"
     inkscape:deskcolor="#d1d1d1"
     inkscape:document-units="mm"
     showgrid="false"
     inkscape:zoom="0.47118627"
     inkscape:cx="50.93527"
     inkscape:cy="611.22324"
     inkscape:window-width="1920"
     inkscape:window-height="927"
     inkscape:window-x="0"
     inkscape:window-y="27"
     inkscape:window-maximized="1"
     inkscape:current-layer="layer1" /><defs
     id="defs2" /><g
     inkscape:label="Capa 1"
     inkscape:groupmode="layer"
     id="layer1"><path
       style="fill:#fdbc03;fill-opacity:1;stroke-width:0.0165805"
       d=""
       id="path14736"
       transform="scale(0.26458333)" /><path
       style="fill:#fdbc03;fill-opacity:1;stroke-width:0.00414512"
       d=""
       id="path14740"
       transform="scale(0.26458333)" /><g
       id="g62954"
       transform="translate(-2.2537467,11.228617)"><g
         id="g31196"
         transform="translate(-49.870355,0.28071159)"><g
           id="g20006"
           transform="translate(1.8628214,32.711822)"><g
             id="g19999"><path
               style="fill:#f7674f;fill-opacity:1;stroke-width:0.264583"
               d="m 176.80104,112.32858 1.12277,-0.28071 0.42154,3.6493 0.98293,4.21179 2.03578,4.56268 2.1756,3.36859 2.59716,2.80716 3.65,2.73803 4.21138,2.45626 3.15853,0.70179 4.84268,0.77197 -4.07155,6.59787 -2.59715,1.05268 -4.77276,-0.28071 -3.22846,-1.6843 -4.9825,2.10537 -4.84473,-10.94897 -1.68415,-8.42252 -0.0699,-7.65056 z"
               id="path19225" /><path
               style="fill:#f99b8d;fill-opacity:1;stroke-width:0.264583"
               d="m 177.39079,112.60773 0.39696,3.32555 0.94367,4.31803 1.53839,4.06917 1.14143,2.03533 1.33918,1.93533 3.07823,2.92856 2.18253,1.83609 3.1771,1.93534 2.5315,1.09247 2.58094,0.8436 2.23342,0.49624 2.38174,0.34737 1.63726,0.24812 3.57406,-10.91876 -0.0494,-7.09698 -3.17711,-5.40976 -4.31707,-2.58119 -3.27598,-0.94285 -1.48894,-0.44662 -3.72237,0.39699 -12.75494,0.99248 z"
               id="path16953" /><path
               style="fill:#39519d;fill-opacity:1;stroke-width:0.264583"
               d="m 194.13627,110.11766 0.14086,-0.59652 0.98293,-0.6667 c 0,0 1.96586,0 2.14065,0 0.17478,0 2.42134,0.70179 2.42134,0.70179 l 1.64918,0.94742 1.83944,1.16101 1.98623,2.08421 1.58782,2.18346 0.89279,2.4812 0.59616,1.88571 0.0989,5.65862 -0.69504,3.67218 -0.89279,3.17594 -1.29119,3.7729 -1.6867,3.0767 -2.18398,3.57293 -1.78558,2.58192 -2.68127,2.18346 -3.27452,0.49624 -1.48895,-0.19849 -1.78849,-0.49624 -2.18398,-0.5955 -1.48894,-0.89323 -3.42294,1.29282 -1.29857,-3.29894 3.01767,-0.87723 0.56138,-0.63214 1.43944,-0.3158 1.57927,0.94794 1.68819,0.88648 1.63871,0.24812 2.03422,0.0496 1.39008,-0.34736 1.73613,-1.09173 1.53984,-2.08421 1.89088,-3.00618 1.12276,-2.52853 1.46191,-4.15696 0.91096,-3.36859 0.56344,-2.03519 0.20974,-3.65036 -0.35163,-2.59662 -0.84104,-2.03624 -1.33457,-1.75447 -0.91301,-1.12287 -1.33251,-1.05268 -1.47439,-0.70179 -1.40448,-0.84215 -1.40242,-0.21053 -1.26465,-0.28072 -0.49147,-0.49125 -0.0448,-0.34719 z"
               id="path14804" /></g><path
             style="fill:#39519d;fill-opacity:1;stroke-width:0.264583"
             d="m 176.70035,112.34737 0.39696,-3.6233 1.19087,-0.24812 2.18398,0.0496 0.99167,0.14887 0.49728,-0.24812 0.19775,-1.48872 0.69504,-2.58119 0.84335,-1.88571 1.04255,-1.98571 1.14143,-1.488721 1.53838,-1.19097 1.53839,-0.64511 1.83647,0.0496 1.53838,0.69474 1.092,0.99247 0.79536,1.04211 0.29662,1.737581 -0.0494,1.29023 -0.34752,1.33984 -0.94222,0.94286 -0.74448,1.48946 -0.79391,1.19098 -0.44785,1.78646 -0.29663,2.33307 -0.24863,2.03459 -0.54528,1.2406 -0.64559,1.0421 -1.58783,0.79473 -1.73759,0.29774 -1.8859,-0.29774 -1.24031,-1.19172 -1.29119,-1.33985 -0.24864,-1.58797 0.0509,-0.8436 -0.94368,-0.29775 -1.58783,-0.0496 -0.94368,0.0992 z"
             id="path14806" /></g><g
           id="g31185"
           transform="translate(38.182087,8.3523433)"><path
             style="fill:#c0f136;fill-opacity:1;stroke-width:0.264583"
             d="m 148.72086,137.40448 1.48895,0.49624 0.79391,-0.59549 0.3955,-1.68722 0.29953,-2.87819 0.59617,-1.78795 0.49438,-1.48872 0.69503,-0.99248 0.59616,-0.89323 0.69504,-1.19097 v -0.69474 l -0.0989,-0.49624 -0.39841,-0.1985 -0.3955,-0.29774 -0.99457,-0.0993 -1.28829,1.48872 -0.89279,1.68722 -0.59616,1.38947 -0.59616,1.58797 -0.49728,1.88719 -0.19775,2.28271 z"
             id="path20062" /><path
             style="fill:#9fd51d;fill-opacity:1;stroke-width:0.264583"
             d="m 150.34154,128.65268 -0.0494,2.30788 0.2232,1.46391 0.44712,1.78684 0.44639,0.99248 -0.34752,2.10939 -0.57071,0.59582 -0.66959,0.0496 -0.8688,-0.19849 -0.19848,-0.29774 v -2.55601 l 0.0742,-1.68759 0.34752,-1.41465 0.37224,-1.33985 z"
             id="path26696" /></g></g><g
         id="g48870"
         transform="translate(6.4651403,0.28490953)"><g
           id="g46124"
           transform="translate(9.5269399,-6.3518749)"><path
             style="fill:#e5962f;fill-opacity:1;stroke-width:0.271742"
             d="m 85.133927,113.74181 4.407061,0.14148 1.174931,0.8489 25.121091,-0.14148 -2.05721,17.4045 0.14633,1.13187 0.88227,1.27335 0.58532,0.28296 -0.43899,3.25622 -0.73594,0.14148 -1.0286,0.70742 -2.34986,14.00891 -0.43898,13.01643 0.88227,4.10511 1.76023,5.94228 2.20354,5.37635 1.47189,3.11474 -21.006694,-0.42445 9.399434,-5.09549 2.93948,-3.11263 0.73163,-2.40521 v -2.40521 l -1.17493,-2.12224 -1.32125,-1.13186 -2.20354,-0.85102 h -2.20352 l -4.846045,1.13398 -6.317926,1.41483 0.735944,-6.51033 -0.296965,-6.08376 z"
             id="path43497" /><path
             style="fill:#fcbb02;fill-opacity:1;stroke-width:0.293117"
             d="m 91.137074,111.35572 2.19309,19.18878 0.87381,4.30036 1.61055,6.61844 3.07119,4.63116 2.484346,3.63878 4.24055,3.47338 4.82309,2.64886 2.19309,-15.71538 0.58683,-1.15779 1.02371,-0.33081 0.72818,-0.16539 0.29128,-3.47585 -1.60627,-1.65398 -0.29127,-1.9848 2.33872,-19.85034 z"
             id="path45002" /><g
             id="g43416"><g
               id="g40711"
               transform="translate(-7.6746973,-1.885715)"><path
                 style="fill:#f06957;fill-opacity:1;stroke-width:0.264583"
                 d="m 129.31935,86.648514 16.2862,-3.649305 1.26259,5.3336 0.41949,1.122865 -23.01865,5.193244 -5.75775,19.794652 h -6.59673 l 7.43983,-24.566822 z"
                 id="path38229" /><path
                 style="fill:#58b6ea;fill-opacity:1;stroke-width:0.264583"
                 d="m 99.368006,115.75998 -1.472333,-10.24717 h -6.03741 l 1.61422,10.59912 6.03741,0.0702 z"
                 id="path36859" /><path
                 style="fill:#84d3f3;fill-opacity:1;stroke-width:0.264583"
                 d="m 98.734653,114.70833 -1.12276,-10.177 h 16.002427 l -3.43819,10.38754 z"
                 id="path36251" /></g><path
               style="fill:#f59c8c;fill-opacity:1;stroke-width:0.264583"
               d="m 107.33001,104.25096 1.88445,-1.68721 0.99457,-1.78646 1.18942,-2.978933 1.78557,-6.35186 0.49729,-1.58797 0.79391,-0.99248 1.19232,-0.39848 23.12813,-5.55789 -0.29953,-2.282704 -27.59498,6.054134 z"
               id="path40805" /><g
               id="g43401"><g
                 id="g40674"
                 transform="translate(-7.8405605,-2.246816)"><g
                   id="g40667"><g
                     id="g40661"><g
                       id="g36247"
                       transform="translate(-0.52916667)"><path
                         style="fill:#39519d;fill-opacity:1;stroke-width:0.264583"
                         d="m 99.05571,113.65494 -1.052843,0.84214 -0.211805,0.63161 v 0.84215 l 0.491467,0.63161 0.913011,0.63161 24.35527,-0.21053 -0.20975,3.79071 -0.77318,5.26342 -0.56138,5.68554 -0.49146,2.80821 0.0699,1.47376 1.12276,1.12286 h 0.8431 l 1.12276,-0.84215 0.6313,-3.65035 0.8431,-5.96521 0.42154,-5.33465 0.70122,-5.54519 0.56138,-3.71948 0.77112,-6.59787 0.14189,-1.26322 -0.28172,-0.84215 -0.70121,-0.63266 -3.58008,-0.0702 1.54431,-5.89503 9.12397,-1.8257 7.5118,-1.824654 4.35122,-0.982506 3.36828,-0.912326 0.56138,-0.842147 -0.81396,-4.395981 -0.73719,-3.61474 -1.05285,-1.333399 -2.24552,0.350895 -3.89573,0.877237 -3.47418,0.772491 -2.94776,0.596521 -1.68517,0.701792 -0.59634,0.947415 -0.035,1.017595 0.91301,0.98303 1.12277,0.03509 1.82499,-0.350895 2.35143,-0.667224 2.42133,-0.491252 1.92988,-0.491254 2.10569,-0.456163 0.70224,0.350895 0.31565,1.825176 0.17581,0.947417 -0.14086,0.56143 -2.45629,0.491254 -4.84371,1.158479 -4.17539,0.912325 -4.17642,0.947415 -4.42216,1.052684 -2.80793,0.596522 -1.0878,0.281239 -0.70121,1.052687 -0.28069,1.78956 -4.29004,16.748312 -3.7718,-0.0496 5.55883,-22.036026 0.94223,-0.64511 3.47518,-0.843611 2.43309,-0.582638 1.78953,-0.473972 0.84259,-0.333349 0.45599,-0.771969 -0.0175,-1.316117 -0.7372,-0.736881 -1.12276,-0.175445 -3.22896,0.684244 -4.08852,0.92987 -1.74271,0.55544 -0.62259,0.524476 -0.49619,0.583083 -1.1588,1.261679 -0.6456,3.126314 -0.94222,3.821793 -4.41741,16.528129 z"
                         id="path31257" /><path
                         style="fill:#39519d;fill-opacity:1;stroke-width:0.264583"
                         d="m 108.7331,104.76765 -0.0349,-0.9825 -1.05285,-0.91285 -17.44186,0.0356 -0.667282,0.45616 -0.280689,0.77197 v 0.98251 l 0.807112,6.91367 4.914937,35.8778 2.068639,15.04538 0.140859,2.73777 -0.315648,5.40483 -0.456507,3.68523 -0.877027,3.61474 -1.333537,3.57965 -1.193705,2.56153 -0.526423,1.12339 -0.596336,1.82465 -0.280692,1.15796 v 0.87776 l 36.673769,0.0702 0.0349,-1.01812 -0.24573,-1.12287 -0.63232,-1.89483 -2.21057,-5.26447 -1.33353,-2.98313 -0.87703,-3.05278 -0.60295,-3.59803 -0.52023,-2.85982 -0.10488,-5.4043 v -3.05409 l 0.59634,-5.82538 0.84207,-6.24698 0.49147,-2.91284 0.21077,-2.31643 -0.42155,-0.80706 -1.05284,-0.63161 -1.01789,0.14036 -0.7372,0.59652 -0.28069,1.86027 -0.77215,6.10609 -0.59634,4.56268 -0.49147,5.01832 -0.24573,2.21095 v 6.35224 l 0.35164,2.35152 1.33353,5.68539 1.47337,5.01832 1.57927,3.50978 0.87805,1.64973 0.13983,0.49126 -0.24573,0.17544 -20.3197,-0.17544 -7.579666,0.0351 -0.280691,-0.0701 -0.105903,-0.28072 1.755085,-3.72001 0.842071,-2.45678 0.596339,-2.80769 0.421547,-3.15857 0.175818,-2.351 0.56138,-6.70345 -0.351634,-6.70314 -1.017886,-7.40524 -1.368494,-10.31819 -0.631296,-6.1416 -0.807111,-5.79071 -1.158748,-8.52816 -1.016858,-7.51056 -0.597368,-3.33398 -0.13983,-2.45626 0.17479,-0.21054 h 5.474999 l 4.246336,0.0702 3.22845,-0.0702 1.57927,-0.0351 0.66728,-0.45668 z"
                         id="path31259" /></g></g></g></g></g><path
               style="fill:#84d3f1;fill-opacity:1;stroke-width:0.264583"
               d="m 114.16703,104.10162 1.96586,0.0702 -0.77318,7.29861 -3.01664,-0.14035 z"
               id="path37812" /></g></g><ellipse
           style="fill:#39529e;fill-opacity:1;stroke-width:0.335341"
           id="path46178-9"
           cx="106.31189"
           cy="156.04478"
           rx="1.6874257"
           ry="1.6375935" /><ellipse
           style="fill:#39529e;fill-opacity:1;stroke-width:0.335341"
           id="path46178-35"
           cx="108.00018"
           cy="143.3378"
           rx="1.6874257"
           ry="1.6375935" /><ellipse
           style="fill:#39529e;fill-opacity:1;stroke-width:0.335341"
           id="path46178-62"
           cx="113.40894"
           cy="152.32123"
           rx="1.6874257"
           ry="1.6375935" /><ellipse
           style="fill:#39529e;fill-opacity:1;stroke-width:0.335341"
           id="path46178"
           cx="104.38587"
           cy="117.88849"
           rx="1.6874257"
           ry="1.6375935" /><ellipse
           style="fill:#39529e;fill-opacity:1;stroke-width:0.335341"
           id="path46178-3"
           cx="118.76968"
           cy="117.92633"
           rx="1.6874257"
           ry="1.6375935" /><ellipse
           style="fill:#39529e;fill-opacity:1;stroke-width:0.335341"
           id="path46178-6"
           cx="113.40977"
           cy="125.22215"
           rx="1.6874257"
           ry="1.6375935" /><ellipse
           style="fill:#39529e;fill-opacity:1;stroke-width:0.335341"
           id="path46178-7"
           cx="104.22815"
           cy="130.68156"
           rx="1.6874257"
           ry="1.6375935" /><ellipse
           style="fill:#39529e;fill-opacity:1;stroke-width:0.335341"
           id="path46178-5"
           cx="115.24608"
           cy="136.09123"
           rx="1.6874257"
           ry="1.6375935" /></g><g
         id="g58871"
         transform="translate(62.882821,-14.882127)"><g
           id="g55135"
           transform="translate(-55.30728,14.037892)"><path
             style="fill:#39519d;fill-opacity:1;stroke-width:0.264583"
             d="m 68.910892,112.68882 -2.183984,-0.19849 -2.183985,0.69473 -1.6867,1.58797 -0.19775,1.68722 -0.197752,1.48872 0.695039,1.88719 1.785575,1.68722 1.390071,1.19097 1.686698,0.89324 2.085109,1.38947 -0.892789,2.87819 -0.200657,2.28419 -0.09887,2.97744 1.587823,4.86316 1.689605,3.87215 2.777242,3.57293 20.746389,35.53613 4.763474,-0.1985 -1.288289,-19.55482 -3.77181,-21.83709 -4.367969,-14.09619 -2.08511,-2.4812 -2.579481,-1.78646 -1.986235,-0.89323 2.183982,-6.8496 -0.197747,-2.87819 -1.291198,-2.08421 -1.887358,-0.89323 -2.480611,-0.397 -2.08511,1.09173 -0.793911,1.19098 -2.085105,-0.99248 -2.082202,-0.39699 -2.08511,0.29774 -1.488948,1.19098 -0.892789,1.38947 z"
             id="path52347" /><g
             id="g52280"><g
               id="g49023"
               style="fill:#c0ef3d;fill-opacity:1"
               transform="translate(-0.52916667)"><path
                 style="fill:#c0ef3d;fill-opacity:1;stroke-width:0.264583"
                 d="m 76.679493,120.05853 1.821915,-0.42107 -2.385353,-7.72179 -1.12276,-0.84214 -1.542251,0.28071 -0.143946,1.54604 z"
                 id="path49014" /><path
                 style="fill:#c0ef3d;fill-opacity:1;stroke-width:0.264583"
                 d="m 81.310368,118.93567 0.982927,0.14036 1.82603,-7.30071 -0.703271,-1.12286 -1.686195,-0.14036 -0.838983,0.56143 -0.143946,1.82675 z"
                 id="path49016" /><path
                 style="fill:#c0ef3d;fill-opacity:1;stroke-width:0.264583"
                 d="m 72.747774,122.44462 0.982927,-0.70179 -1.826022,-3.36859 -2.525188,-2.10537 -0.982927,-0.56143 -1.262595,0.14035 -0.423603,1.6843 1.82603,1.26322 z"
                 id="path49018" /></g><path
               style="fill:#77a451;fill-opacity:1;stroke-width:0.262663"
               d="m 66.212703,116.35537 -0.06612,1.02389 0.33254,0.87762 5.773754,4.16871 -2.720609,-3.51048 z"
               id="path49025" /><path
               style="fill:#77a451;fill-opacity:1;stroke-width:0.271929"
               d="m 77.257668,119.82499 -1.232189,0.28752 -3.111217,-6.75747 -0.29055,-1.00629 0.144211,-0.79062 0.434768,-0.3594 z"
               id="path49029" /><path
               style="fill:#77a451;fill-opacity:1;stroke-width:0.271556"
               d="m 80.832772,119.13 h 1.033254 l 0.444064,-2.80715 -0.591358,-1.26427 -0.07365,-4.49146 h -0.59136 l -0.738658,0.70179 -0.07364,4.70199 0.220946,1.19409 z"
               id="path49031" /></g></g><path
           style="fill:#f99b8d;fill-opacity:1;stroke-width:0.264583"
           d="m 16.581264,145.13262 -0.09887,-1.48872 0.596156,-1.98496 0.695037,-1.48872 1.986232,-2.28271 3.175646,-1.49019 4.170227,0.0992 2.97791,1.29171 2.18109,2.58045 0.79683,2.38195 -3.57408,1.29023 -1.09345,0.29774 -0.99167,0.99248 -0.19775,1.38947 0.99166,1.29171 1.68671,-0.1985 2.48354,-0.79546 1.48895,-0.79399 3.175665,10.32328 -4.766405,1.78795 -1.58783,1.38947 0.20065,1.58797 1.18943,0.99248 2.08512,-0.39699 3.475195,-1.48872 1.09055,3.47368 -2.97792,0.99247 -0.81182,0.95777 -0.0699,1.40358 0.70121,0.77197 1.19269,0.1414 2.1057,-0.70284 0.98293,-0.14035 0.91302,2.94856 0.0699,3.50895 -0.13983,0.77197 -0.2118,2.38713 -8.352895,-0.0702 v -0.9825 l 2.387415,-1.05374 0.91302,-1.26322 -0.14189,-0.9825 -0.77113,-0.77197 -0.843095,-0.28072 -1.47235,0.3509 h -0.77319 v -2.31591 l -1.54431,-3.79071 -2.24554,-3.29841 -2.105696,-1.96501 -0.982929,-0.98355 0.91301,-0.56143 2.876835,-1.05269 0.8431,-1.26322 v -0.98251 l -1.05285,-0.84214 -1.75407,-0.28072 -1.965858,0.56143 -3.650001,1.61412 -0.209743,-0.0702 1.402421,-1.05269 2.317494,-2.10537 1.402427,-2.31695 0.8431,-2.94751 0.0699,-2.94752 -1.192678,-1.12391 -4.281297,-0.21054 -3.018703,0.42107 z"
           id="path55187" /><path
           style="fill:#f46751;fill-opacity:1;stroke-width:0.132644"
           d="m 136.85538,668.55029 -15.35354,-0.12505 v -1.82071 -1.82071 l 4.47673,-1.97993 4.47674,-1.97994 1.74905,-2.40261 1.74906,-2.40262 -0.27939,-1.83793 -0.27939,-1.83793 -1.40041,-1.49304 -1.40041,-1.49304 -1.68686,-0.55672 -1.68685,-0.55672 -2.90726,0.69016 c -2.45555,0.58292 -3.10587,0.69016 -4.18557,0.69016 h -1.27832 v -4.34008 -4.34007 l -2.94704,-7.22975 -2.94705,-7.22976 -4.19445,-6.1713 -4.19444,-6.1713 -4.49802,-4.21119 c -3.909827,-3.66052 -7.070524,-6.78395 -7.080704,-6.99722 -0.0017,-0.0365 0.757722,-0.52664 1.687697,-1.08924 1.554587,-0.94048 2.101775,-1.173 6.789267,-2.88501 2.80413,-1.02414 5.16187,-1.86157 5.23944,-1.86094 0.0776,6.2e-4 1.07061,0.7955 2.20678,1.7664 1.62031,1.38461 2.59354,2.08571 4.5134,3.25138 l 2.44765,1.48612 0.3847,3.0644 0.3847,3.0644 2.26467,1.8916 2.26467,1.89161 3.97932,-0.76019 3.97932,-0.76018 6.49955,-2.78869 c 4.19651,-1.80055 6.52737,-2.73601 6.57806,-2.64 0.28526,0.54033 3.98061,12.72123 3.88563,12.80816 -0.0646,0.0591 -2.57769,0.92511 -5.58465,1.92438 l -5.46718,1.81686 -1.49662,1.7817 c -1.13557,1.35188 -1.51688,1.90157 -1.5806,2.27852 -0.0462,0.27325 -0.1242,1.51154 -0.17338,2.75176 l -0.0894,2.25495 1.3295,1.46815 1.32949,1.46815 2.29296,0.24504 2.29295,0.24505 4.04532,-1.33949 c 3.44836,-1.14183 4.29511,-1.3732 5.7381,-1.56792 0.93104,-0.12563 1.72917,-0.19204 1.77363,-0.14759 0.0445,0.0445 0.84351,2.54574 1.77569,5.55841 l 1.69485,5.47758 0.13059,6.58729 c 0.12353,6.23107 0.11692,6.66145 -0.12224,7.95864 -0.20443,1.10884 -1.04266,9.42721 -1.04266,10.34709 0,0.18261 -0.0906,0.23691 -0.36477,0.21848 -0.20062,-0.0135 -7.27386,-0.0808 -15.7183,-0.14957 z"
           id="path58747"
           transform="scale(0.26458333)" /><path
           style="fill:#f46751;fill-opacity:1;stroke-width:0.0937934"
           d="m 78.010289,592.14044 c -0.2585,-0.11554 -0.241434,-0.13055 2.438629,-2.14539 2.342857,-1.76133 3.206326,-2.48974 6.544483,-5.52084 2.115041,-1.92049 3.975077,-3.6146 4.133414,-3.76468 l 0.287884,-0.27288 1.93897,2.44061 c 1.066434,1.34233 1.928698,2.4406 1.916143,2.4406 -0.01255,0 -0.740293,0.20613 -1.617197,0.45806 -1.427005,0.40998 -2.298338,0.77053 -8.300599,3.4348 -3.688427,1.63721 -6.790644,2.99234 -6.893817,3.0114 -0.103173,0.0191 -0.304732,-0.0177 -0.44791,-0.0817 z"
           id="path58851"
           transform="scale(0.26458333)" /><path
           style="fill:#f46751;fill-opacity:1;stroke-width:0.187587"
           d="m 62.566647,545.54093 -0.126061,-2.85218 1.044137,-3.47036 c 1.296418,-4.30885 3.344739,-8.90204 4.609637,-10.33672 l 0.851174,-0.96542 3.919781,8.07463 c 2.155879,4.44105 3.915206,8.14473 3.909615,8.23039 -0.0056,0.0857 -1.897772,0.41767 -4.204845,0.73777 l -4.194679,0.58202 -2.841349,1.42602 -2.841348,1.42603 z"
           id="path58855"
           transform="scale(0.26458333)" /></g><g
         id="g61200"
         transform="translate(3.0874835,-2.4425094)"><ellipse
           style="fill:#fcba03;fill-opacity:1;stroke-width:0.343176"
           id="path58950"
           cx="70.480644"
           cy="162.91435"
           rx="18.412647"
           ry="18.760105" /><path
           style="fill:#39519d;fill-opacity:1;stroke-width:0.264583"
           d="m 70.400462,151.69915 1.488948,-1.09173 -0.09888,-3.07669 -0.39841,-1.29022 1.986232,-0.0993 3.472278,0.69474 3.972468,1.88571 2.876105,2.58044 2.085113,2.48121 1.887354,4.1699 0.395508,2.4812 v 3.17594 l -14.293324,15.28716 h -4.367969 l -2.777236,-0.89324 -2.780144,-1.0932 -2.879016,-2.08422 -2.381734,-2.77894 -2.085112,-3.37443 -1.090536,-3.57442 v -1.8857 l -2.681274,-5.65715 -0.892781,2.6797 v 3.57293 l 0.395502,3.57441 1.6896,4.66466 3.472278,4.46617 4.170214,3.27666 4.068437,1.68722 3.672933,0.99248 6.354201,-0.1985 3.771805,-1.29023 12.7055,-16.27964 -0.793911,-6.84811 -1.192329,-3.57441 -2.678359,-4.36692 -3.376308,-3.07668 -4.565716,-2.28419 3.373393,-1.88571 1.887363,-3.07669 1.090535,-3.17594 0.299535,-3.37592 -0.892789,-1.48872 -5.659162,-0.0992 -4.367967,1.68721 -2.579489,1.6887 -2.381734,2.87819 -1.39007,2.4812 -2.977899,-2.97744 -2.879021,-2.08421 -2.085105,-0.79546 -1.587822,-0.59549 h -1.291199 l -0.793914,1.09321 v 0.99248 l 0.596159,1.19098 1.488954,0.0993 3.574055,1.88571 2.480606,2.4812 0.793912,1.68721 -2.183982,1.09173 -0.197753,0.99249 -0.09887,1.39095 0.991661,0.59549 0.991664,0.0992 1.986235,-0.29774 0.296624,2.58045 0.497287,1.38947 z"
           id="path60491" /><g
           id="g61191"
           transform="translate(-29.195889,16.283619)"><path
             style="fill:#c0ef3d;fill-opacity:1;stroke-width:0.264583"
             d="m 102.0074,125.07819 1.98624,-3.57293 1.88735,-1.88572 2.87612,-1.38947 1.78848,-0.49624 2.18398,-0.19849 -0.29954,1.68721 -0.99166,1.98496 -1.09053,1.29023 -0.79682,0.89323 -1.58783,0.49624 -1.78557,0.49624 -1.6867,0.29774 z"
             id="path60773" /><path
             style="fill:#77a451;fill-opacity:1;stroke-width:0.259492"
             d="m 104.1595,121.33051 3.30684,-0.68171 2.7253,-1.07125 2.52859,-2.04514 -2.33475,-0.0975 -2.23781,0.29217 -2.23781,1.55819 -0.77826,0.87647 z"
             id="path60973" /></g></g><path
         style="fill:#e5952e;fill-opacity:1;stroke-width:0.264583"
         d="m 63.209611,144.94163 0.334793,-0.2109 0.359879,-0.22331 0.335158,-0.19849 0.459115,-0.27293 0.372237,-0.1985 0.496197,-0.27312 0.483836,-0.2109 0.335158,-0.14887 0.272997,-0.11165 0.235556,-0.0993 0.02508,-0.0124 -0.06216,1.04229 0.111599,0.27293 0.570714,0.33496 0.409681,0.18609 1.004747,0.062 1.848827,-0.31015 0.349752,2.64568 0.570715,1.36503 1.24103,0.4218 0.743374,0.0917 0.701212,1.82465 0.38659,0.9825 1.263618,1.79009 1.614229,1.61412 1.43841,1.22865 1.894914,1.61412 1.439436,0.84215 2.617981,1.29273 0.517681,0.27195 2.456553,0.82473 1.987576,0.31308 0.772158,-0.14036 -0.350608,0.35089 -1.625557,1.71594 -10.248876,-3.97059 -1.364626,-0.54586 -1.339908,-0.74473 -12.891209,-10.94026 z"
         id="path61361" /><g
         id="g31201"
         transform="matrix(1.0278543,0,0,1.0532139,-9.4285968,-33.081894)"><path
           style="fill:#39519d;fill-opacity:1;stroke-width:0.264583"
           d="m 60.817009,170.38935 6.601389,-3.52405 0.993116,-0.14887 7.593052,7.84207 6.451624,4.66541 0.894241,1.09172 -0.10033,1.14135 -0.744474,0.74437 h -1.091991 l -0.843351,-0.29775 -5.558835,-3.7218 -1.587823,-1.19172 -3.126208,-3.27518 h -0.396957 l 0.04944,0.69473 1.587823,2.38196 6.204431,6.94862 8.386964,5.40976 9.628727,3.2263 5.012113,0.74436 6.006,0.1494 3.42574,-0.54587 4.51628,-1.2406 3.12621,-0.99322 0.59616,-0.39699 1.38862,-0.1985 1.14143,0.99323 0.10033,0.94285 -0.59616,1.14135 -3.22654,1.19098 -3.72092,0.94286 -3.57405,0.74436 -2.9779,0.59623 h -7.245533 l -4.76493,-0.79473 -4.417409,-0.99248 -4.318529,-1.68722 -4.465389,-2.38269 -6.005697,-4.21799 -3.325413,-3.47442 -2.135301,-2.53083 -1.390074,-1.9857 -1.836465,-2.72932 -0.991663,-1.73758 -0.645597,-1.29023 -0.495832,-0.44661 h -0.446394 l -0.05089,0.69473 0.645597,1.78647 1.984779,4.51652 2.03567,3.52405 2.828129,3.92104 3.325413,3.27519 4.417406,3.77216 4.218202,2.13383 5.80748,2.73007 4.020447,0.8436 3.027338,0.54587 3.275975,0.29774 3.77182,0.0496 3.02733,-0.29775 3.87068,-0.59549 4.96343,-1.63759 4.11932,-1.9857 3.72237,-2.03459 3.12767,-2.4812 1.33917,-1.34058 0.19921,-1.38948 -0.44639,-0.94286 -0.64561,-0.64511 -0.59615,-0.34736 -1.33919,-0.0496 -2.38318,0.69474 -3.42429,0.99248 -3.07677,0.54586 -2.92846,0.54587 -4.26764,0.0496 -7.79226,-0.0496 -2.928453,-0.34737 -3.374858,-0.94286 -2.977899,-0.64511 -2.431171,-0.89323 -1.73759,-0.79473 -1.291199,-0.79398 -0.09887,-1.09173 0.248642,-0.74436 0.695036,-0.54587 0.744474,-0.24812 1.488948,0.1985 2.828129,1.38947 2.383187,0.79399 3.523171,0.69473 3.473723,0.64586 4.02045,0.0992 4.51628,-0.0992 4.06989,-0.1985 2.92846,-0.54661 3.22654,-0.74436 3.17565,-0.8436 2.28285,-0.54587 1.78703,0.24812 2.08511,1.14135 1.2403,2.23383 0.24865,2.18345 -0.14977,2.03459 -1.28974,1.93607 -2.33375,2.13384 -2.3323,1.48872 -3.02733,1.73758 -3.27598,1.73684 -2.28286,1.14135 -4.76492,1.34059 -3.22509,0.69474 -2.78014,0.49624 h -4.96268 l -4.516282,-0.1985 -2.531501,-0.44661 -4.814364,-1.19172 -4.962673,-1.98496 -5.756587,-2.87819 -5.410523,-4.26841 -3.126208,-3.32555 -2.730659,-3.22556 -2.085107,-3.87142 -1.836465,-3.72254 -1.38862,-3.62329 -0.943679,-2.4812 z"
           id="path1642" /><path
           style="fill:#f9e108;fill-opacity:1;stroke-width:0.265288"
           d="m 391.83017,730.03914 -11.54002,-0.30386 -9.01978,-1.36123 -9.01979,-1.36123 -18.30486,-6.10285 -18.30487,-6.10285 -15.85106,-10.23367 -15.85107,-10.23366 -11.73887,-13.14547 c -10.52777,-11.78925 -12.04362,-13.60161 -14.69272,-17.56671 -2.53072,-3.7879 -2.96802,-4.59931 -3.05273,-5.66437 -0.0937,-1.1775 -0.0638,-1.24285 0.56626,-1.23782 0.51976,0.004 1.93921,1.34574 6.49454,6.1383 6.95422,7.31638 7.71913,7.92157 22.42375,17.74167 11.59927,7.74626 12.50295,8.21455 15.85184,8.21455 1.96922,0 2.06274,-0.0293 2.99374,-0.93842 l 0.96102,-0.93841 3.42742,1.87376 c 1.88508,1.03056 3.72586,1.94347 4.09063,2.02867 0.36477,0.0852 1.17476,0.32088 1.79997,0.52373 0.62521,0.20286 1.33121,0.36883 1.5689,0.36883 0.56868,0 2.46747,0.84259 2.46747,1.09494 0,0.10833 -0.12764,0.53268 -0.28365,0.943 -0.17644,0.46408 -0.21524,1.56712 -0.10267,2.91857 l 0.18097,2.17253 2.55659,1.56179 c 5.96382,3.64324 15.25066,7.194 23.51432,8.99054 3.06408,0.66614 8.50044,2.02876 12.08081,3.02804 5.8108,1.6218 7.11953,1.88986 12.18873,2.49658 5.65328,0.67662 5.78044,0.67983 28.1103,0.70804 l 22.43134,0.0283 11.40738,-2.05471 c 11.22439,-2.02175 11.58398,-2.10622 22.41682,-5.26621 l 11.00945,-3.21149 2.65288,0.0828 c 2.26811,0.0708 2.83994,0.18411 3.94266,0.78139 1.28368,0.69529 1.28695,0.70052 0.69307,1.10454 -0.66382,0.45161 -21.44794,12.55471 -22.62359,13.17427 -0.73083,0.38514 -0.77597,0.36425 -2.52024,-1.16623 l -1.77608,-1.5584 -2.78553,0.42523 c -2.13718,0.32626 -3.03884,0.59521 -3.87389,1.15548 -1.3985,0.93832 -9.42415,3.49417 -20.93052,6.66554 -7.51032,2.06999 -10.04089,2.64581 -15.12141,3.44081 -3.35589,0.52513 -6.28069,0.9851 -6.49955,1.02215 -0.21886,0.0371 -5.59094,-0.0694 -11.93796,-0.23649 z"
           id="path7830"
           transform="scale(0.26458333)" /><path
           style="fill:#fdbc03;fill-opacity:1;stroke-width:0.265288"
           d="m 371.80094,756.05983 c -6.72378,-0.64373 -13.94629,-1.87672 -26.13085,-4.46095 l -6.76484,-1.43475 -10.87681,-5.14497 c -5.98224,-2.82974 -14.46029,-6.95221 -18.84011,-9.16106 l -7.96332,-4.01609 -8.48453,-7.26435 c -4.82466,-4.13081 -11.09905,-9.82924 -14.54566,-13.21042 l -6.06112,-5.94606 -5.36804,-7.43886 c -7.63081,-10.57455 -11.80962,-17.84354 -16.86822,-29.34207 -4.60508,-10.46765 -6.08823,-14.45035 -6.09382,-16.36372 -0.004,-1.36345 0.0122,-1.39276 0.77144,-1.39276 1.20584,0 2.32307,1.16777 3.6521,3.81732 2.06901,4.12475 4.55778,8.31347 8.13508,13.69168 8.79371,13.22073 12.85346,18.31688 23.30354,29.25263 l 6.55192,6.85643 11.33231,7.96506 c 11.20958,7.87878 11.42595,8.01488 19.97687,12.56531 7.7585,4.12875 9.46029,4.91746 16.60318,7.6949 7.7833,3.02646 8.13691,3.13505 16.04992,4.92897 4.4502,1.00888 12.3531,2.5505 17.562,3.42582 l 9.47071,1.59148 h 13.39035 13.39034 l 11.89165,-2.4057 c 16.53628,-3.34531 25.95426,-5.74798 33.51261,-8.54957 l 5.96898,-2.21247 1.1369,-2.10431 c 1.11517,-2.06409 1.13424,-2.14232 0.99766,-4.09396 -0.0897,-1.28191 -0.27133,-2.07695 -0.51059,-2.23504 -0.27407,-0.18109 0.7157,-0.86958 3.77751,-2.62768 2.28189,-1.31026 7.67058,-4.44256 11.97487,-6.96068 l 7.82599,-4.5784 0.94706,0.91268 c 0.52088,0.50197 1.34678,1.73894 1.83533,2.74883 l 0.88828,1.83616 -0.33518,2.63013 -0.33518,2.63013 -2.69395,2.64782 c -1.48167,1.45631 -5.26381,4.67781 -8.40476,7.15889 -5.42986,4.28914 -6.06111,4.70315 -12.8313,8.41553 -3.91626,2.14746 -10.59831,5.57553 -14.84899,7.61792 -7.35729,3.53509 -8.18725,3.86432 -17.27888,6.85418 l -9.55036,3.14073 -7.16277,1.08138 c -11.44056,1.72722 -16.56618,2.15884 -25.19426,2.12158 -5.52588,-0.0239 -9.07174,-0.18871 -13.80306,-0.64169 z"
           id="path14748"
           transform="scale(0.26458333)" /></g><path
         style="fill:#e5952e;fill-opacity:1;stroke-width:0.265288"
         d="m 269.00189,665.17566 c -2.6993,-0.87612 -7.3854,-2.5587 -10.41356,-3.73906 l -5.50573,-2.14611 -5.37107,-3.88696 -5.37107,-3.88696 -4.55223,-5.27814 c -4.1006,-4.75449 -4.94283,-5.91052 -8.48921,-11.65199 l -3.93698,-6.37384 -2.04177,-6.63767 c -2.03442,-6.61379 -2.0418,-6.64863 -2.05178,-9.68847 l -0.01,-3.05081 1.87048,3.55805 c 1.64812,3.13509 2.47011,4.28615 6.9148,9.68301 2.77438,3.36872 7.90461,9.24845 11.4005,13.06606 l 6.35618,6.94111 10.52487,8.5026 10.52487,8.5026 6.32489,3.21653 c 3.47869,1.7691 6.82561,3.50285 7.4376,3.85279 l 1.1127,0.63625 -4.90783,-0.013 -4.90782,-0.013 -4.90783,-1.59294 z"
         id="path62889"
         transform="scale(0.26458333)" /><path
         style="fill:#39519d;fill-opacity:1;stroke-width:0.264583"
         d="m 73.754797,116.72092 0.438769,-1.72829 -0.447509,0.52634 -0.166822,1.20195 z"
         id="path63089" /><path
         style="fill:#39519d;fill-opacity:1;stroke-width:0.264583"
         d="m 73.879077,116.95636 c 0,0 -0.04362,-0.32885 -0.07452,-0.4281 -0.0309,-0.0992 -0.161219,0.27294 -0.161219,0.27294 z"
         id="path63091" /><path
         style="fill:#39519d;fill-opacity:1;stroke-width:0.264583"
         d="m 80.966761,110.31616 -0.921239,0.72823 c 0,0 0.09639,-0.5791 0.140346,-0.60542 0.04395,-0.0263 0.780893,-0.12281 0.780893,-0.12281 z"
         id="path63093" /><path
         style="fill:#39519d;fill-opacity:1;stroke-width:0.264583"
         d="m 80.895798,110.41167 -0.881785,0.53518 0.557141,-0.64929 z"
         id="path63095" /><path
         style="fill:#77a451;fill-opacity:1;stroke-width:0.264583"
         d="m 87.819277,115.14156 -0.07017,-3.86036 0.166563,-1.06159 0.842327,-0.60529 0.456251,0.0877 0.01749,0.10527 z"
         id="path63097" /><path
         style="fill:#77a451;fill-opacity:1;stroke-width:0.264583"
         d="m 89.305404,114.27646 -0.03659,-4.85378 -0.893514,0.32256 -0.436777,0.48103 z"
         id="path63099" /><path
         style="fill:#c0ef3d;fill-opacity:1;stroke-width:0.264583"
         d="m 89.265111,109.42462 1.234487,0.34116 0.657596,1.16635 -1.879725,-0.28543 z"
         id="path63101" /><path
         style="fill:#77a451;fill-opacity:1;stroke-width:0.264583"
         d="m 89.415907,118.26509 -1.105281,0.0175 -0.491463,-3.13213 2.044255,0.29826 0.114128,0.18422 z"
         id="path63180" /></g></g></svg>
